<mxfile host="app.diagrams.net" modified="2023-11-14T10:27:10.911Z" agent="Mozilla/5.0 (X11; Ubuntu; Linux x86_64; rv:109.0) Gecko/20100101 Firefox/119.0" etag="e4EBWA8BkuOXjXWDPA_q" version="22.1.0" type="device">
  <diagram name="Page-1" id="12zspigX2sZvUz8JR0sr">
    <mxGraphModel dx="1364" dy="795" grid="1" gridSize="10" guides="1" tooltips="1" connect="1" arrows="1" fold="1" page="1" pageScale="1" pageWidth="850" pageHeight="1100" math="0" shadow="0">
      <root>
        <mxCell id="0" />
        <mxCell id="1" parent="0" />
        <mxCell id="MT20WT9ZjDiSe8qtbaJg-1" value="&lt;b&gt;&lt;font style=&quot;font-size: 18px;&quot;&gt;PDF document&lt;/font&gt;&lt;/b&gt;" style="rounded=1;whiteSpace=wrap;html=1;strokeColor=#000099;fillColor=#33FFFF;strokeWidth=5;" parent="1" vertex="1">
          <mxGeometry x="90" y="170" width="160" height="60" as="geometry" />
        </mxCell>
        <mxCell id="MT20WT9ZjDiSe8qtbaJg-2" value="&lt;b&gt;&lt;font style=&quot;font-size: 18px;&quot;&gt;HTML visualisatie&lt;/font&gt;&lt;/b&gt;" style="rounded=1;whiteSpace=wrap;html=1;strokeColor=#000099;fillColor=#33FFFF;strokeWidth=5;" parent="1" vertex="1">
          <mxGeometry x="470" y="170" width="180" height="60" as="geometry" />
        </mxCell>
        <mxCell id="MT20WT9ZjDiSe8qtbaJg-3" value="&lt;font style=&quot;font-size: 14px;&quot;&gt;Door textsplitter halen&lt;/font&gt;" style="endArrow=classic;html=1;rounded=0;entryX=0;entryY=0.5;entryDx=0;entryDy=0;exitX=1;exitY=0.5;exitDx=0;exitDy=0;strokeWidth=5;strokeColor=#000099;labelBackgroundColor=none;" parent="1" target="MT20WT9ZjDiSe8qtbaJg-2" edge="1">
          <mxGeometry y="10" width="50" height="50" relative="1" as="geometry">
            <mxPoint x="250" y="200" as="sourcePoint" />
            <mxPoint x="410" y="200" as="targetPoint" />
            <mxPoint as="offset" />
          </mxGeometry>
        </mxCell>
        <mxCell id="MT20WT9ZjDiSe8qtbaJg-4" value="&lt;div&gt;&lt;font style=&quot;font-size: 18px;&quot;&gt;Zijn er&amp;nbsp;&lt;/font&gt;&lt;/div&gt;&lt;div&gt;&lt;font style=&quot;font-size: 18px;&quot;&gt;incorrecte&amp;nbsp;&lt;/font&gt;&lt;/div&gt;&lt;div&gt;&lt;font style=&quot;font-size: 18px;&quot;&gt;structuur-&lt;/font&gt;&lt;/div&gt;&lt;div&gt;&lt;font style=&quot;font-size: 18px;&quot;&gt;elementen?&lt;/font&gt;&lt;/div&gt;" style="rhombus;whiteSpace=wrap;html=1;strokeWidth=5;strokeColor=#000099;fillColor=#33FFFF;" parent="1" vertex="1">
          <mxGeometry x="280" y="380" width="180" height="170" as="geometry" />
        </mxCell>
        <mxCell id="MT20WT9ZjDiSe8qtbaJg-5" value="&lt;font style=&quot;font-size: 14px;&quot;&gt;Visuele inspectie&lt;/font&gt;" style="endArrow=classic;html=1;rounded=0;entryX=0.5;entryY=0;entryDx=0;entryDy=0;exitX=0.466;exitY=0.999;exitDx=0;exitDy=0;strokeWidth=5;strokeColor=#000099;labelBackgroundColor=none;exitPerimeter=0;" parent="1" source="MT20WT9ZjDiSe8qtbaJg-1" target="MT20WT9ZjDiSe8qtbaJg-4" edge="1">
          <mxGeometry y="10" width="50" height="50" relative="1" as="geometry">
            <mxPoint x="250" y="300" as="sourcePoint" />
            <mxPoint x="470" y="300" as="targetPoint" />
            <mxPoint as="offset" />
            <Array as="points">
              <mxPoint x="165" y="300" />
              <mxPoint x="370" y="300" />
            </Array>
          </mxGeometry>
        </mxCell>
        <mxCell id="MT20WT9ZjDiSe8qtbaJg-6" value="&lt;font style=&quot;font-size: 14px;&quot;&gt;Visuele inspectie&lt;/font&gt;" style="endArrow=classic;html=1;rounded=0;entryX=0.5;entryY=0;entryDx=0;entryDy=0;exitX=0.5;exitY=1;exitDx=0;exitDy=0;strokeWidth=5;strokeColor=#000099;labelBackgroundColor=none;" parent="1" source="MT20WT9ZjDiSe8qtbaJg-2" target="MT20WT9ZjDiSe8qtbaJg-4" edge="1">
          <mxGeometry y="-10" width="50" height="50" relative="1" as="geometry">
            <mxPoint x="175" y="240" as="sourcePoint" />
            <mxPoint x="380" y="390" as="targetPoint" />
            <mxPoint as="offset" />
            <Array as="points">
              <mxPoint x="560" y="300" />
              <mxPoint x="370" y="300" />
            </Array>
          </mxGeometry>
        </mxCell>
        <mxCell id="MT20WT9ZjDiSe8qtbaJg-7" value="&lt;div align=&quot;left&quot; style=&quot;font-size: 14px;&quot;&gt;&lt;font style=&quot;font-size: 14px;&quot;&gt;&lt;b&gt;Beoordelen op:&lt;/b&gt;&lt;/font&gt;&lt;/div&gt;&lt;div align=&quot;left&quot; style=&quot;font-size: 14px;&quot;&gt;&lt;font style=&quot;font-size: 14px;&quot;&gt;- Titel (string content)&lt;/font&gt;&lt;/div&gt;&lt;div align=&quot;left&quot; style=&quot;font-size: 14px;&quot;&gt;&lt;font style=&quot;font-size: 14px;&quot;&gt;- Textlevel&lt;/font&gt;&lt;/div&gt;&lt;div align=&quot;left&quot; style=&quot;font-size: 14px;&quot;&gt;&lt;font style=&quot;font-size: 14px;&quot;&gt;- Textuele Inhoud&lt;/font&gt;&lt;/div&gt;&lt;div align=&quot;left&quot; style=&quot;font-size: 14px;&quot;&gt;&lt;font style=&quot;font-size: 14px;&quot;&gt;- Relevantie&lt;font style=&quot;font-size: 14px;&quot;&gt;&lt;br&gt;&lt;/font&gt;&lt;/font&gt;&lt;/div&gt;" style="rounded=0;whiteSpace=wrap;html=1;strokeColor=none;fillColor=#33FFFF;align=left;" parent="1" vertex="1">
          <mxGeometry x="172" y="330" width="140" height="90" as="geometry" />
        </mxCell>
        <mxCell id="MT20WT9ZjDiSe8qtbaJg-8" value="&lt;div&gt;&lt;font style=&quot;font-size: 18px;&quot;&gt;Slagen alle&lt;/font&gt;&lt;/div&gt;&lt;div&gt;&lt;font style=&quot;font-size: 18px;&quot;&gt;bestaande&amp;nbsp;&lt;/font&gt;&lt;/div&gt;&lt;div&gt;&lt;font style=&quot;font-size: 18px;&quot;&gt;regressie-&lt;/font&gt;&lt;/div&gt;&lt;div&gt;&lt;font style=&quot;font-size: 18px;&quot;&gt;testen?&lt;/font&gt;&lt;/div&gt;" style="rhombus;whiteSpace=wrap;html=1;strokeWidth=5;strokeColor=#000099;fillColor=#33FFFF;" parent="1" vertex="1">
          <mxGeometry x="600" y="380" width="180" height="170" as="geometry" />
        </mxCell>
        <mxCell id="MT20WT9ZjDiSe8qtbaJg-9" value="&lt;font style=&quot;font-size: 14px;&quot;&gt;Nee&lt;/font&gt;" style="endArrow=classic;html=1;rounded=0;exitX=1;exitY=0.5;exitDx=0;exitDy=0;strokeWidth=5;strokeColor=#000099;labelBackgroundColor=none;" parent="1" edge="1">
          <mxGeometry y="10" width="50" height="50" relative="1" as="geometry">
            <mxPoint x="460" y="464.65999999999997" as="sourcePoint" />
            <mxPoint x="600" y="465" as="targetPoint" />
            <mxPoint as="offset" />
          </mxGeometry>
        </mxCell>
        <mxCell id="MT20WT9ZjDiSe8qtbaJg-10" value="&lt;font style=&quot;font-size: 14px;&quot;&gt;Ja&lt;/font&gt;" style="endArrow=classic;html=1;rounded=0;exitX=0.5;exitY=1;exitDx=0;exitDy=0;strokeWidth=5;strokeColor=#000099;labelBackgroundColor=none;" parent="1" source="MT20WT9ZjDiSe8qtbaJg-4" edge="1">
          <mxGeometry y="10" width="50" height="50" relative="1" as="geometry">
            <mxPoint x="440" y="700" as="sourcePoint" />
            <mxPoint x="370" y="670" as="targetPoint" />
            <mxPoint as="offset" />
          </mxGeometry>
        </mxCell>
        <mxCell id="MT20WT9ZjDiSe8qtbaJg-11" value="&lt;div style=&quot;font-size: 18px;&quot;&gt;&lt;font style=&quot;font-size: 18px;&quot;&gt;&lt;b&gt;TextSplitter Code&amp;nbsp;&lt;/b&gt;&lt;/font&gt;&lt;/div&gt;&lt;div style=&quot;font-size: 18px;&quot;&gt;&lt;font style=&quot;font-size: 18px;&quot;&gt;&lt;b&gt;aanpassen&lt;/b&gt;&lt;/font&gt;&lt;/div&gt;" style="rounded=1;whiteSpace=wrap;html=1;strokeColor=#000099;fillColor=#33FFFF;strokeWidth=5;" parent="1" vertex="1">
          <mxGeometry x="280" y="670" width="180" height="60" as="geometry" />
        </mxCell>
        <mxCell id="MT20WT9ZjDiSe8qtbaJg-12" value="&lt;b&gt;&lt;font style=&quot;font-size: 26px;&quot;&gt;START&lt;/font&gt;&lt;/b&gt;" style="rounded=1;whiteSpace=wrap;html=1;strokeColor=#990000;fillColor=#FF3333;strokeWidth=5;" parent="1" vertex="1">
          <mxGeometry x="90" y="100" width="160" height="60" as="geometry" />
        </mxCell>
        <mxCell id="MT20WT9ZjDiSe8qtbaJg-13" value="" style="endArrow=classic;html=1;rounded=0;exitX=1;exitY=0.5;exitDx=0;exitDy=0;strokeWidth=5;strokeColor=#000099;labelBackgroundColor=none;entryX=0.5;entryY=1;entryDx=0;entryDy=0;" parent="1" source="MT20WT9ZjDiSe8qtbaJg-11" target="MT20WT9ZjDiSe8qtbaJg-8" edge="1">
          <mxGeometry x="-0.2632" y="10" width="50" height="50" relative="1" as="geometry">
            <mxPoint x="590" y="670" as="sourcePoint" />
            <mxPoint x="590" y="790" as="targetPoint" />
            <mxPoint as="offset" />
            <Array as="points">
              <mxPoint x="690" y="700" />
            </Array>
          </mxGeometry>
        </mxCell>
        <mxCell id="MT20WT9ZjDiSe8qtbaJg-14" value="&lt;font style=&quot;font-size: 14px;&quot;&gt;Nee&lt;/font&gt;" style="endArrow=classic;html=1;rounded=0;strokeWidth=5;strokeColor=#000099;labelBackgroundColor=none;entryX=0.5;entryY=1;entryDx=0;entryDy=0;exitX=1;exitY=0.5;exitDx=0;exitDy=0;" parent="1" source="MT20WT9ZjDiSe8qtbaJg-8" target="MT20WT9ZjDiSe8qtbaJg-11" edge="1">
          <mxGeometry x="-0.9509" y="15" width="50" height="50" relative="1" as="geometry">
            <mxPoint x="810" y="460" as="sourcePoint" />
            <mxPoint x="920" y="464.92" as="targetPoint" />
            <mxPoint as="offset" />
            <Array as="points">
              <mxPoint x="820" y="465" />
              <mxPoint x="820" y="760" />
              <mxPoint x="370" y="760" />
            </Array>
          </mxGeometry>
        </mxCell>
        <mxCell id="MT20WT9ZjDiSe8qtbaJg-15" value="&lt;font style=&quot;font-size: 14px;&quot;&gt;&lt;b&gt;Verandering terugzetten&lt;/b&gt;&lt;/font&gt;" style="rounded=0;whiteSpace=wrap;html=1;strokeColor=none;fillColor=#33FFFF;align=left;" parent="1" vertex="1">
          <mxGeometry x="525" y="770" width="170" height="20" as="geometry" />
        </mxCell>
        <mxCell id="MT20WT9ZjDiSe8qtbaJg-21" value="&lt;font style=&quot;font-size: 14px;&quot;&gt;&lt;b&gt;Verandering maken&lt;br&gt;&lt;/b&gt;&lt;/font&gt;" style="rounded=0;whiteSpace=wrap;html=1;strokeColor=none;fillColor=#33FFFF;align=left;" parent="1" vertex="1">
          <mxGeometry x="540" y="670" width="140" height="20" as="geometry" />
        </mxCell>
        <mxCell id="MT20WT9ZjDiSe8qtbaJg-22" value="&lt;font style=&quot;font-size: 14px;&quot;&gt;Ja&lt;/font&gt;" style="endArrow=classic;html=1;rounded=0;exitX=0.5;exitY=0;exitDx=0;exitDy=0;strokeWidth=5;strokeColor=#000099;labelBackgroundColor=none;entryX=1;entryY=0.5;entryDx=0;entryDy=0;" parent="1" source="MT20WT9ZjDiSe8qtbaJg-8" target="MT20WT9ZjDiSe8qtbaJg-12" edge="1">
          <mxGeometry x="-0.7143" y="-10" width="50" height="50" relative="1" as="geometry">
            <mxPoint x="630" y="290" as="sourcePoint" />
            <mxPoint x="560" y="300" as="targetPoint" />
            <mxPoint as="offset" />
            <Array as="points">
              <mxPoint x="690" y="130" />
            </Array>
          </mxGeometry>
        </mxCell>
        <mxCell id="MT20WT9ZjDiSe8qtbaJg-24" value="" style="endArrow=classic;html=1;rounded=0;strokeWidth=5;strokeColor=#006600;labelBackgroundColor=none;exitX=0;exitY=0.5;exitDx=0;exitDy=0;" parent="1" source="MT20WT9ZjDiSe8qtbaJg-4" edge="1">
          <mxGeometry y="10" width="50" height="50" relative="1" as="geometry">
            <mxPoint x="180" y="520" as="sourcePoint" />
            <mxPoint x="150" y="850.8333333333334" as="targetPoint" />
            <mxPoint as="offset" />
            <Array as="points">
              <mxPoint x="150" y="465" />
            </Array>
          </mxGeometry>
        </mxCell>
        <mxCell id="MT20WT9ZjDiSe8qtbaJg-26" value="&lt;div&gt;&lt;font size=&quot;1&quot;&gt;&lt;span style=&quot;font-size: 14px;&quot;&gt;&lt;b&gt;Einde cyclus:&lt;/b&gt;&lt;/span&gt;&lt;/font&gt;&lt;/div&gt;&lt;div&gt;&lt;font style=&quot;font-size: 14px;&quot;&gt;&lt;span&gt;De cyclus eindigt zodra je erin geslaagd bent een volledige loop terug naar START te maken ZONDER via &#39;TextSplitter Code aanpassen&#39; te zijn gegaan.&lt;br&gt;&lt;/span&gt;&lt;/font&gt;&lt;/div&gt;" style="rounded=0;whiteSpace=wrap;html=1;strokeColor=none;fillColor=#66FF66;align=left;fontStyle=0" parent="1" vertex="1">
          <mxGeometry y="463" width="140" height="180" as="geometry" />
        </mxCell>
        <mxCell id="MT20WT9ZjDiSe8qtbaJg-27" value="&lt;div style=&quot;font-size: 14px;&quot;&gt;&lt;font size=&quot;1&quot;&gt;&lt;b&gt;&lt;font style=&quot;font-size: 14px;&quot;&gt;Draaien via:&lt;/font&gt;&lt;/b&gt;&lt;/font&gt;&lt;/div&gt;&lt;div style=&quot;font-size: 14px;&quot;&gt;- python RegressionTests.py dummy&lt;/div&gt;&lt;div style=&quot;font-size: 14px;&quot;&gt;in textsplitter/textsplitter/Tests/Scripts/&lt;br style=&quot;font-size: 14px;&quot;&gt;&lt;/div&gt;" style="rounded=0;whiteSpace=wrap;html=1;strokeColor=none;fillColor=#33FFFF;align=left;fontSize=14;" parent="1" vertex="1">
          <mxGeometry x="740" y="345" width="240" height="60" as="geometry" />
        </mxCell>
        <mxCell id="MT20WT9ZjDiSe8qtbaJg-34" value="" style="edgeStyle=orthogonalEdgeStyle;rounded=0;orthogonalLoop=1;jettySize=auto;html=1;" parent="1" source="MT20WT9ZjDiSe8qtbaJg-28" target="MT20WT9ZjDiSe8qtbaJg-31" edge="1">
          <mxGeometry relative="1" as="geometry" />
        </mxCell>
        <mxCell id="MT20WT9ZjDiSe8qtbaJg-28" value="&lt;b&gt;&lt;font style=&quot;font-size: 18px;&quot;&gt;Uitkomsten exporteren&lt;/font&gt;&lt;/b&gt;" style="rounded=1;whiteSpace=wrap;html=1;strokeColor=#006600;fillColor=#33FF33;strokeWidth=5;" parent="1" vertex="1">
          <mxGeometry x="60" y="850" width="180" height="60" as="geometry" />
        </mxCell>
        <mxCell id="MT20WT9ZjDiSe8qtbaJg-29" value="&lt;div&gt;&lt;font size=&quot;1&quot;&gt;&lt;span style=&quot;font-size: 14px;&quot;&gt;&lt;b&gt;Hardcoded export:&lt;br&gt;&lt;/b&gt;&lt;/span&gt;&lt;/font&gt;&lt;/div&gt;&lt;div&gt;&lt;font style=&quot;font-size: 14px;&quot;&gt;&lt;span&gt;Draai na de normale splitter (voor het nieuwe document):&lt;/span&gt;&lt;/font&gt;&lt;/div&gt;&lt;div&gt;&lt;font style=&quot;font-size: 14px;&quot;&gt;&lt;span&gt;- mysplitter.printcode()&lt;/span&gt;&lt;/font&gt;&lt;/div&gt;&lt;div&gt;&lt;font style=&quot;font-size: 14px;&quot;&gt;&lt;span&gt;Plaats het gegenereerde script in textsplitter/textsplitter/Tests/Hardcodes/&lt;br&gt;&lt;/span&gt;&lt;/font&gt;&lt;/div&gt;" style="rounded=0;whiteSpace=wrap;html=1;strokeColor=none;fillColor=#66FF66;align=left;fontStyle=0" parent="1" vertex="1">
          <mxGeometry x="250" y="797" width="150" height="155" as="geometry" />
        </mxCell>
        <mxCell id="MT20WT9ZjDiSe8qtbaJg-31" value="&lt;b&gt;&lt;font style=&quot;font-size: 18px;&quot;&gt;Toevoegen aan regressietests&lt;br&gt;&lt;/font&gt;&lt;/b&gt;" style="rounded=1;whiteSpace=wrap;html=1;strokeColor=#006600;fillColor=#33FF33;strokeWidth=5;" parent="1" vertex="1">
          <mxGeometry x="60" y="990" width="180" height="60" as="geometry" />
        </mxCell>
        <mxCell id="MT20WT9ZjDiSe8qtbaJg-32" value="&lt;font style=&quot;font-size: 14px;&quot;&gt;Importeer het script in RegressionTests.py en test op de uitkomsten volgens de methode van bestaande regressietesten&lt;br&gt;&lt;/font&gt;" style="rounded=0;whiteSpace=wrap;html=1;strokeColor=none;fillColor=#66FF66;align=left;fontStyle=0" parent="1" vertex="1">
          <mxGeometry x="250" y="967.5" width="150" height="105" as="geometry" />
        </mxCell>
        <mxCell id="MT20WT9ZjDiSe8qtbaJg-33" value="" style="endArrow=classic;html=1;rounded=0;strokeWidth=5;strokeColor=#006600;labelBackgroundColor=none;" parent="1" edge="1">
          <mxGeometry y="10" width="50" height="50" relative="1" as="geometry">
            <mxPoint x="150" y="910" as="sourcePoint" />
            <mxPoint x="149.58" y="990" as="targetPoint" />
            <mxPoint as="offset" />
          </mxGeometry>
        </mxCell>
        <mxCell id="MT20WT9ZjDiSe8qtbaJg-36" value="&lt;div&gt;&lt;font style=&quot;font-size: 18px;&quot;&gt;Slagen&amp;nbsp;&lt;/font&gt;&lt;/div&gt;&lt;div&gt;&lt;font style=&quot;font-size: 18px;&quot;&gt;alle unit- en integratietests?&lt;/font&gt;&lt;/div&gt;" style="rhombus;whiteSpace=wrap;html=1;strokeWidth=5;strokeColor=#000099;fillColor=#33FFFF;" parent="1" vertex="1">
          <mxGeometry x="180" y="1156" width="180" height="170" as="geometry" />
        </mxCell>
        <mxCell id="MT20WT9ZjDiSe8qtbaJg-37" value="" style="endArrow=classic;html=1;rounded=0;strokeWidth=5;strokeColor=#000099;labelBackgroundColor=none;entryX=0.5;entryY=0;entryDx=0;entryDy=0;" parent="1" target="MT20WT9ZjDiSe8qtbaJg-36" edge="1">
          <mxGeometry y="10" width="50" height="50" relative="1" as="geometry">
            <mxPoint x="150" y="1050" as="sourcePoint" />
            <mxPoint x="149.58" y="1140" as="targetPoint" />
            <mxPoint as="offset" />
            <Array as="points">
              <mxPoint x="150" y="1100" />
              <mxPoint x="270" y="1100" />
            </Array>
          </mxGeometry>
        </mxCell>
        <mxCell id="MT20WT9ZjDiSe8qtbaJg-39" value="&lt;div style=&quot;font-size: 18px;&quot;&gt;&lt;font style=&quot;font-size: 18px;&quot;&gt;&lt;b&gt;TextSplitter Code of unit/integratie tests&lt;br&gt;&lt;/b&gt;&lt;/font&gt;&lt;/div&gt;&lt;div style=&quot;font-size: 18px;&quot;&gt;&lt;font style=&quot;font-size: 18px;&quot;&gt;&lt;b&gt;aanpassen&lt;/b&gt;&lt;/font&gt;&lt;/div&gt;" style="rounded=1;whiteSpace=wrap;html=1;strokeColor=#000099;fillColor=#33FFFF;strokeWidth=5;" parent="1" vertex="1">
          <mxGeometry x="390" y="1380" width="180" height="76" as="geometry" />
        </mxCell>
        <mxCell id="MT20WT9ZjDiSe8qtbaJg-40" value="&lt;div&gt;&lt;font style=&quot;font-size: 18px;&quot;&gt;Slagen&amp;nbsp;&lt;/font&gt;&lt;/div&gt;&lt;div&gt;&lt;font style=&quot;font-size: 18px;&quot;&gt;alle&lt;/font&gt;&lt;/div&gt;&lt;div&gt;&lt;font style=&quot;font-size: 18px;&quot;&gt;bestaande &amp;amp; nieuwe &lt;br&gt;&lt;/font&gt;&lt;/div&gt;&lt;div&gt;&lt;font style=&quot;font-size: 18px;&quot;&gt;regressie-&lt;/font&gt;&lt;/div&gt;&lt;div&gt;&lt;font style=&quot;font-size: 18px;&quot;&gt;testen?&lt;/font&gt;&lt;/div&gt;" style="rhombus;whiteSpace=wrap;html=1;strokeWidth=5;strokeColor=#000099;fillColor=#33FFFF;" parent="1" vertex="1">
          <mxGeometry x="590" y="1156" width="180" height="170" as="geometry" />
        </mxCell>
        <mxCell id="MT20WT9ZjDiSe8qtbaJg-41" value="&lt;font style=&quot;font-size: 14px;&quot;&gt;Ja&lt;/font&gt;" style="endArrow=classic;html=1;rounded=0;exitX=1;exitY=0.5;exitDx=0;exitDy=0;strokeWidth=5;strokeColor=#000099;labelBackgroundColor=none;entryX=0;entryY=0.5;entryDx=0;entryDy=0;" parent="1" source="MT20WT9ZjDiSe8qtbaJg-36" target="MT20WT9ZjDiSe8qtbaJg-40" edge="1">
          <mxGeometry y="10" width="50" height="50" relative="1" as="geometry">
            <mxPoint x="489.5799999999999" y="1246" as="sourcePoint" />
            <mxPoint x="489.5799999999999" y="1366" as="targetPoint" />
            <mxPoint as="offset" />
          </mxGeometry>
        </mxCell>
        <mxCell id="MT20WT9ZjDiSe8qtbaJg-42" value="&lt;font style=&quot;font-size: 14px;&quot;&gt;Nee&lt;/font&gt;" style="endArrow=classic;html=1;rounded=0;exitX=0.5;exitY=1;exitDx=0;exitDy=0;strokeWidth=5;strokeColor=#000099;labelBackgroundColor=none;entryX=0;entryY=0.5;entryDx=0;entryDy=0;" parent="1" source="MT20WT9ZjDiSe8qtbaJg-36" target="MT20WT9ZjDiSe8qtbaJg-39" edge="1">
          <mxGeometry x="-0.8182" y="20" width="50" height="50" relative="1" as="geometry">
            <mxPoint x="360" y="1325.17" as="sourcePoint" />
            <mxPoint x="590" y="1325.17" as="targetPoint" />
            <mxPoint as="offset" />
            <Array as="points">
              <mxPoint x="270" y="1418" />
            </Array>
          </mxGeometry>
        </mxCell>
        <mxCell id="MT20WT9ZjDiSe8qtbaJg-43" value="" style="endArrow=classic;html=1;rounded=0;exitX=1;exitY=0.5;exitDx=0;exitDy=0;strokeWidth=5;strokeColor=#000099;labelBackgroundColor=none;" parent="1" target="MT20WT9ZjDiSe8qtbaJg-40" edge="1">
          <mxGeometry x="-0.2632" y="10" width="50" height="50" relative="1" as="geometry">
            <mxPoint x="570" y="1426" as="sourcePoint" />
            <mxPoint x="800" y="1276" as="targetPoint" />
            <mxPoint as="offset" />
            <Array as="points">
              <mxPoint x="680" y="1426" />
            </Array>
          </mxGeometry>
        </mxCell>
        <mxCell id="MT20WT9ZjDiSe8qtbaJg-44" value="&lt;font style=&quot;font-size: 14px;&quot;&gt;&lt;b&gt;Verandering maken&lt;br&gt;&lt;/b&gt;&lt;/font&gt;" style="rounded=0;whiteSpace=wrap;html=1;strokeColor=none;fillColor=#33FFFF;align=left;" parent="1" vertex="1">
          <mxGeometry x="590" y="1436" width="140" height="20" as="geometry" />
        </mxCell>
        <mxCell id="MT20WT9ZjDiSe8qtbaJg-46" value="&lt;font style=&quot;font-size: 14px;&quot;&gt;Nee&lt;/font&gt;" style="endArrow=classic;html=1;rounded=0;strokeWidth=5;strokeColor=#000099;labelBackgroundColor=none;entryX=0.5;entryY=1;entryDx=0;entryDy=0;exitX=1;exitY=0.5;exitDx=0;exitDy=0;" parent="1" source="MT20WT9ZjDiSe8qtbaJg-40" edge="1">
          <mxGeometry x="-0.9509" y="15" width="50" height="50" relative="1" as="geometry">
            <mxPoint x="890" y="1196" as="sourcePoint" />
            <mxPoint x="480" y="1461" as="targetPoint" />
            <mxPoint as="offset" />
            <Array as="points">
              <mxPoint x="800" y="1241" />
              <mxPoint x="800" y="1491" />
              <mxPoint x="480" y="1491" />
            </Array>
          </mxGeometry>
        </mxCell>
        <mxCell id="MT20WT9ZjDiSe8qtbaJg-47" value="&lt;font style=&quot;font-size: 14px;&quot;&gt;&lt;b&gt;Verandering terugzetten&lt;/b&gt;&lt;/font&gt;" style="rounded=0;whiteSpace=wrap;html=1;strokeColor=none;fillColor=#33FFFF;align=left;" parent="1" vertex="1">
          <mxGeometry x="540" y="1501" width="170" height="20" as="geometry" />
        </mxCell>
        <mxCell id="MT20WT9ZjDiSe8qtbaJg-48" value="&lt;font style=&quot;font-size: 14px;&quot;&gt;Ja&lt;/font&gt;" style="endArrow=classic;html=1;rounded=0;exitX=0.5;exitY=0;exitDx=0;exitDy=0;strokeWidth=5;strokeColor=#000099;labelBackgroundColor=none;" parent="1" source="MT20WT9ZjDiSe8qtbaJg-40" edge="1">
          <mxGeometry x="-0.9313" y="-10" width="50" height="50" relative="1" as="geometry">
            <mxPoint x="695" y="1060" as="sourcePoint" />
            <mxPoint x="270" y="1100" as="targetPoint" />
            <mxPoint as="offset" />
            <Array as="points">
              <mxPoint x="680" y="1100" />
            </Array>
          </mxGeometry>
        </mxCell>
        <mxCell id="MT20WT9ZjDiSe8qtbaJg-49" value="" style="endArrow=classic;html=1;rounded=0;strokeWidth=5;strokeColor=#006600;labelBackgroundColor=none;exitX=0;exitY=0.5;exitDx=0;exitDy=0;entryX=0.5;entryY=0;entryDx=0;entryDy=0;" parent="1" source="MT20WT9ZjDiSe8qtbaJg-36" target="MT20WT9ZjDiSe8qtbaJg-53" edge="1">
          <mxGeometry y="10" width="50" height="50" relative="1" as="geometry">
            <mxPoint x="280" y="1235.58" as="sourcePoint" />
            <mxPoint x="150" y="1621.4133333333334" as="targetPoint" />
            <mxPoint as="offset" />
            <Array as="points">
              <mxPoint x="150" y="1241" />
            </Array>
          </mxGeometry>
        </mxCell>
        <mxCell id="MT20WT9ZjDiSe8qtbaJg-50" value="&lt;div&gt;&lt;font size=&quot;1&quot;&gt;&lt;span style=&quot;font-size: 14px;&quot;&gt;&lt;b&gt;Einde cyclus:&lt;/b&gt;&lt;/span&gt;&lt;/font&gt;&lt;/div&gt;&lt;div&gt;&lt;font style=&quot;font-size: 14px;&quot;&gt;&lt;span&gt;De cyclus eindigt zodra je erin geslaagd bent een volledige loop te maken ZONDER via &#39;TextSplitter Code aanpassen&#39; te zijn gegaan.&lt;br&gt;&lt;/span&gt;&lt;/font&gt;&lt;/div&gt;" style="rounded=0;whiteSpace=wrap;html=1;strokeColor=none;fillColor=#66FF66;align=left;fontStyle=0" parent="1" vertex="1">
          <mxGeometry y="1240" width="140" height="160" as="geometry" />
        </mxCell>
        <mxCell id="MT20WT9ZjDiSe8qtbaJg-51" value="&lt;div style=&quot;font-size: 14px;&quot;&gt;&lt;font size=&quot;1&quot;&gt;&lt;b&gt;&lt;font style=&quot;font-size: 14px;&quot;&gt;Draaien via:&lt;/font&gt;&lt;/b&gt;&lt;/font&gt;&lt;/div&gt;&lt;div style=&quot;font-size: 14px;&quot;&gt;- coverage run --rcfile=.coveragerc -m pytest&lt;br&gt;&lt;/div&gt;&lt;div style=&quot;font-size: 14px;&quot;&gt;vanuit textsplitter/textsplitter/Tests/Scripts/&lt;br style=&quot;font-size: 14px;&quot;&gt;&lt;/div&gt;" style="rounded=0;whiteSpace=wrap;html=1;strokeColor=none;fillColor=#33FFFF;align=left;fontSize=14;" parent="1" vertex="1">
          <mxGeometry x="310" y="1120" width="280" height="60" as="geometry" />
        </mxCell>
        <mxCell id="MT20WT9ZjDiSe8qtbaJg-52" value="&lt;div style=&quot;font-size: 14px;&quot;&gt;&lt;font size=&quot;1&quot;&gt;&lt;b&gt;&lt;font style=&quot;font-size: 14px;&quot;&gt;Draaien via:&lt;/font&gt;&lt;/b&gt;&lt;/font&gt;&lt;/div&gt;&lt;div style=&quot;font-size: 14px;&quot;&gt;- python RegressionTests.py dummy&lt;/div&gt;&lt;div style=&quot;font-size: 14px;&quot;&gt;in textsplitter/textsplitter/Tests/Scripts/&lt;br style=&quot;font-size: 14px;&quot;&gt;&lt;/div&gt;" style="rounded=0;whiteSpace=wrap;html=1;strokeColor=none;fillColor=#33FFFF;align=left;fontSize=14;" parent="1" vertex="1">
          <mxGeometry x="730" y="1120" width="240" height="60" as="geometry" />
        </mxCell>
        <mxCell id="MT20WT9ZjDiSe8qtbaJg-53" value="&lt;div style=&quot;font-size: 18px;&quot;&gt;&lt;b&gt;&lt;font style=&quot;font-size: 18px;&quot;&gt;Is er 100%&amp;nbsp;&lt;/font&gt;&lt;/b&gt;&lt;/div&gt;&lt;div style=&quot;font-size: 18px;&quot;&gt;&lt;b&gt;&lt;font style=&quot;font-size: 18px;&quot;&gt;Code coverage?&lt;/font&gt;&lt;/b&gt;&lt;/div&gt;" style="rhombus;whiteSpace=wrap;html=1;strokeWidth=5;strokeColor=#000099;fillColor=#33FFFF;" parent="1" vertex="1">
          <mxGeometry x="60" y="1501" width="180" height="170" as="geometry" />
        </mxCell>
        <mxCell id="MT20WT9ZjDiSe8qtbaJg-54" value="&lt;font style=&quot;font-size: 14px;&quot;&gt;Nee&lt;/font&gt;" style="endArrow=classic;html=1;rounded=0;exitX=1;exitY=0.5;exitDx=0;exitDy=0;strokeWidth=5;strokeColor=#000099;labelBackgroundColor=none;" parent="1" source="MT20WT9ZjDiSe8qtbaJg-53" edge="1">
          <mxGeometry x="-0.9753" y="16" width="50" height="50" relative="1" as="geometry">
            <mxPoint x="425" y="1571" as="sourcePoint" />
            <mxPoint x="680" y="1100" as="targetPoint" />
            <mxPoint as="offset" />
            <Array as="points">
              <mxPoint x="990" y="1590" />
              <mxPoint x="990" y="1100" />
            </Array>
          </mxGeometry>
        </mxCell>
        <mxCell id="MT20WT9ZjDiSe8qtbaJg-55" value="&lt;div style=&quot;font-size: 14px;&quot;&gt;&lt;font size=&quot;1&quot;&gt;&lt;b&gt;&lt;font style=&quot;font-size: 14px;&quot;&gt;Altijd:&lt;/font&gt;&lt;/b&gt;&lt;/font&gt;&lt;/div&gt;&lt;div&gt;textsplitter/textsplitter/TextPart/summarize.py&lt;/div&gt;&lt;div&gt;met rust laten in dit proces!&lt;br&gt;&lt;/div&gt;" style="rounded=0;whiteSpace=wrap;html=1;strokeColor=none;fillColor=#33FFFF;align=left;fontSize=14;" parent="1" vertex="1">
          <mxGeometry x="340" y="1310" width="280" height="60" as="geometry" />
        </mxCell>
        <mxCell id="MT20WT9ZjDiSe8qtbaJg-56" value="&lt;div style=&quot;font-size: 14px;&quot;&gt;&lt;font size=&quot;1&quot;&gt;&lt;b&gt;&lt;font style=&quot;font-size: 14px;&quot;&gt;Altijd:&lt;/font&gt;&lt;/b&gt;&lt;/font&gt;&lt;/div&gt;&lt;div&gt;textsplitter/textsplitter/TextPart/summarize.py&lt;/div&gt;&lt;div&gt;met rust laten in dit proces! evenals:&lt;/div&gt;&lt;div&gt;summarize_openai.py en&lt;/div&gt;&lt;div&gt;summarize_private_huggingface.py&lt;br&gt;&lt;/div&gt;" style="rounded=0;whiteSpace=wrap;html=1;strokeColor=none;fillColor=#33FFFF;align=left;fontSize=14;" parent="1" vertex="1">
          <mxGeometry x="400" y="570" width="280" height="90" as="geometry" />
        </mxCell>
        <mxCell id="MT20WT9ZjDiSe8qtbaJg-59" value="&lt;div&gt;&lt;font style=&quot;font-size: 14px;&quot;&gt;&lt;b&gt;Unit/integratietests toevoegen&lt;/b&gt;&lt;/font&gt;&lt;/div&gt;&lt;div&gt;- AllTests.py&lt;/div&gt;&lt;div&gt;- test_collection.py&lt;/div&gt;&lt;div&gt;in textsplitter/textsplitter/Tests/Scripts/&lt;br&gt;&lt;/div&gt;&lt;div&gt;Bij voorkeur een unit-test (d.w.z. hardcoded input) en anders een integratietest (d.w.z. toy-doc in textsplitter/textsplitter/Tests/Inputs/)&lt;br&gt;&lt;/div&gt;" style="rounded=0;whiteSpace=wrap;html=1;strokeColor=none;fillColor=#33FFFF;align=left;" parent="1" vertex="1">
          <mxGeometry x="740" y="1596" width="250" height="109" as="geometry" />
        </mxCell>
        <mxCell id="MT20WT9ZjDiSe8qtbaJg-62" value="&lt;div style=&quot;font-size: 14px;&quot;&gt;&lt;font size=&quot;1&quot;&gt;&lt;b&gt;&lt;font style=&quot;font-size: 14px;&quot;&gt;Draaien via:&lt;/font&gt;&lt;/b&gt;&lt;/font&gt;&lt;/div&gt;&lt;div style=&quot;font-size: 14px;&quot;&gt;- coverage report -m&lt;br&gt;&lt;/div&gt;&lt;div style=&quot;font-size: 14px;&quot;&gt;onmiddelijk na vorige coverage-commando&lt;br style=&quot;font-size: 14px;&quot;&gt;&lt;/div&gt;" style="rounded=0;whiteSpace=wrap;html=1;strokeColor=none;fillColor=#33FFFF;align=left;fontSize=14;" parent="1" vertex="1">
          <mxGeometry x="220" y="1619" width="280" height="60" as="geometry" />
        </mxCell>
        <mxCell id="MT20WT9ZjDiSe8qtbaJg-63" value="&lt;div&gt;&lt;b&gt;Toelichting hardcoded export:&lt;/b&gt;&lt;/div&gt;&lt;div&gt;Als er eenmaal een hardcoded-export gemaakt is en deze toegevoegd is aan de regressietest terwijl er ook maar 1 structuurelement incorrect is, en je gaat daarna de textsplitter verder verbeteren, dan zal je regressietest falen terwijl dat niet de bedoeling is. Dus het is van het grootste belang dat elk structuurelement 100% correct herkend is TOT DE LAATSTE TOE voordat je deze export maakt. Niet-relevante structuurelementen (zie &#39;beoordelen op&#39;) zou je handmatig kunnen verwijderen uit de export om dit probleem te omzeilen. Maar dat is een laatste redmiddel. Belangrijker is: niet opgeven tot het 100% correct is.&lt;br&gt;&lt;/div&gt;" style="rounded=0;whiteSpace=wrap;html=1;strokeColor=none;fillColor=#CCFFCC;align=left;fontStyle=0" parent="1" vertex="1">
          <mxGeometry x="420" y="850" width="400" height="155" as="geometry" />
        </mxCell>
        <mxCell id="MT20WT9ZjDiSe8qtbaJg-64" value="&lt;div style=&quot;font-size: 18px;&quot;&gt;&lt;b&gt;&lt;font style=&quot;font-size: 18px;&quot;&gt;Documentatie&lt;/font&gt;&lt;/b&gt;&lt;/div&gt;&lt;div style=&quot;font-size: 18px;&quot;&gt;&lt;b&gt;&lt;font style=&quot;font-size: 18px;&quot;&gt;aanpassen&lt;/font&gt;&lt;/b&gt;&lt;br&gt;&lt;/div&gt;" style="rounded=1;whiteSpace=wrap;html=1;strokeColor=#000099;fillColor=#33FFFF;strokeWidth=5;" parent="1" vertex="1">
          <mxGeometry x="60" y="1750" width="180" height="66" as="geometry" />
        </mxCell>
        <mxCell id="MT20WT9ZjDiSe8qtbaJg-65" value="&lt;div&gt;- textsplitter/README.md&lt;br&gt;&lt;/div&gt;&lt;div&gt;- textsplitter/docs/TextSplitter.md&lt;/div&gt;&lt;div&gt;- textsplitter/docs/TextSplitter_overzicht.drawio&lt;/div&gt;&lt;div&gt;- textsplitter/docs/TextSplitter_details.drawio&lt;/div&gt;&lt;div&gt;- textsplitter/textsplitter/TextPart/Readme.md&lt;/div&gt;&lt;div&gt;- textsplitter/textsplitter/Tests/Scripts/Readme.md&lt;/div&gt;&lt;div&gt;- textsplitter/textsplitter/Tests/Tools/Readme.md&lt;/div&gt;" style="rounded=0;whiteSpace=wrap;html=1;strokeColor=none;fillColor=#33FFFF;align=left;fontSize=14;" parent="1" vertex="1">
          <mxGeometry x="250" y="1750" width="320" height="130" as="geometry" />
        </mxCell>
        <mxCell id="MT20WT9ZjDiSe8qtbaJg-67" value="" style="endArrow=classic;html=1;rounded=0;exitX=0.5;exitY=1;exitDx=0;exitDy=0;strokeWidth=5;strokeColor=#000099;labelBackgroundColor=none;" parent="1" edge="1">
          <mxGeometry y="10" width="50" height="50" relative="1" as="geometry">
            <mxPoint x="149.52" y="1671" as="sourcePoint" />
            <mxPoint x="150" y="1750" as="targetPoint" />
            <mxPoint as="offset" />
          </mxGeometry>
        </mxCell>
        <mxCell id="MT20WT9ZjDiSe8qtbaJg-68" value="&lt;div style=&quot;font-size: 18px;&quot;&gt;&lt;font style=&quot;font-size: 18px;&quot;&gt;&lt;b&gt;Genereer &lt;br&gt;&lt;/b&gt;&lt;/font&gt;&lt;/div&gt;&lt;div style=&quot;font-size: 18px;&quot;&gt;&lt;font style=&quot;font-size: 18px;&quot;&gt;&lt;b&gt;nieuwe build&lt;/b&gt;&lt;font style=&quot;font-size: 18px;&quot;&gt;&lt;br&gt;&lt;/font&gt;&lt;/font&gt;&lt;/div&gt;" style="rounded=1;whiteSpace=wrap;html=1;strokeColor=#000099;fillColor=#33FFFF;strokeWidth=5;" parent="1" vertex="1">
          <mxGeometry x="60" y="2050" width="180" height="66" as="geometry" />
        </mxCell>
        <mxCell id="MT20WT9ZjDiSe8qtbaJg-69" value="" style="endArrow=classic;html=1;rounded=0;exitX=0.5;exitY=1;exitDx=0;exitDy=0;strokeWidth=5;strokeColor=#000099;labelBackgroundColor=none;entryX=0.5;entryY=0;entryDx=0;entryDy=0;" parent="1" target="MT20WT9ZjDiSe8qtbaJg-77" edge="1">
          <mxGeometry y="10" width="50" height="50" relative="1" as="geometry">
            <mxPoint x="149.52" y="1816" as="sourcePoint" />
            <mxPoint x="150" y="1895" as="targetPoint" />
            <mxPoint as="offset" />
          </mxGeometry>
        </mxCell>
        <mxCell id="MT20WT9ZjDiSe8qtbaJg-70" value="&lt;div&gt;Vanuit mother-textsplitter folder:&lt;/div&gt;&lt;div&gt;1) delete dist &amp;amp; egg-info folders VOLLEDIG&lt;/div&gt;&lt;div&gt;2) draai: python -m build&lt;br&gt;&lt;/div&gt;" style="rounded=0;whiteSpace=wrap;html=1;strokeColor=none;fillColor=#33FFFF;align=left;fontSize=14;" parent="1" vertex="1">
          <mxGeometry x="250" y="2050" width="280" height="70" as="geometry" />
        </mxCell>
        <mxCell id="MT20WT9ZjDiSe8qtbaJg-71" value="&lt;font style=&quot;font-size: 18px;&quot;&gt;&lt;b&gt;Git push&lt;/b&gt;&lt;/font&gt;" style="rounded=1;whiteSpace=wrap;html=1;strokeColor=#000099;fillColor=#33FFFF;strokeWidth=5;" parent="1" vertex="1">
          <mxGeometry x="60" y="2200" width="180" height="66" as="geometry" />
        </mxCell>
        <mxCell id="MT20WT9ZjDiSe8qtbaJg-77" value="&lt;div style=&quot;font-size: 18px;&quot;&gt;&lt;font style=&quot;font-size: 18px;&quot;&gt;&lt;b&gt;Versienummer aanpassen&lt;br&gt;&lt;/b&gt;&lt;/font&gt;&lt;/div&gt;" style="rounded=1;whiteSpace=wrap;html=1;strokeColor=#000099;fillColor=#33FFFF;strokeWidth=5;" parent="1" vertex="1">
          <mxGeometry x="60" y="1900" width="180" height="66" as="geometry" />
        </mxCell>
        <mxCell id="MT20WT9ZjDiSe8qtbaJg-78" value="" style="endArrow=classic;html=1;rounded=0;exitX=0.5;exitY=1;exitDx=0;exitDy=0;strokeWidth=5;strokeColor=#000099;labelBackgroundColor=none;entryX=0.5;entryY=0;entryDx=0;entryDy=0;" parent="1" edge="1">
          <mxGeometry y="10" width="50" height="50" relative="1" as="geometry">
            <mxPoint x="149.52" y="1966" as="sourcePoint" />
            <mxPoint x="150" y="2050" as="targetPoint" />
            <mxPoint as="offset" />
          </mxGeometry>
        </mxCell>
        <mxCell id="MT20WT9ZjDiSe8qtbaJg-79" value="&lt;div&gt;- textsplitter/setup.py&lt;/div&gt;&lt;div&gt;- textsplitter/setup.cfg&lt;/div&gt;&lt;div&gt;- textspliiter/textsplitter/TextPart/textsplitter.py&amp;nbsp; &lt;b&gt;&lt;u&gt;!!!!!&lt;/u&gt;&lt;/b&gt;&lt;br&gt;&lt;/div&gt;&lt;div&gt;- textsplitter/Version Control.xlsx&lt;br&gt;&lt;/div&gt;" style="rounded=0;whiteSpace=wrap;html=1;strokeColor=none;fillColor=#33FFFF;align=left;fontSize=14;" parent="1" vertex="1">
          <mxGeometry x="250" y="1900" width="320" height="80" as="geometry" />
        </mxCell>
        <mxCell id="MT20WT9ZjDiSe8qtbaJg-80" value="" style="endArrow=classic;html=1;rounded=0;exitX=0.5;exitY=1;exitDx=0;exitDy=0;strokeWidth=5;strokeColor=#000099;labelBackgroundColor=none;entryX=0.5;entryY=0;entryDx=0;entryDy=0;" parent="1" edge="1">
          <mxGeometry y="10" width="50" height="50" relative="1" as="geometry">
            <mxPoint x="149.52" y="2116" as="sourcePoint" />
            <mxPoint x="150" y="2200" as="targetPoint" />
            <mxPoint as="offset" />
          </mxGeometry>
        </mxCell>
        <mxCell id="MT20WT9ZjDiSe8qtbaJg-81" value="&lt;b style=&quot;font-size: 18px;&quot;&gt;&lt;font style=&quot;font-size: 18px;&quot;&gt;Merge into main&lt;br&gt;&lt;/font&gt;&lt;/b&gt;" style="rounded=1;whiteSpace=wrap;html=1;strokeColor=#000099;fillColor=#33FFFF;strokeWidth=5;" parent="1" vertex="1">
          <mxGeometry x="320" y="2200" width="180" height="66" as="geometry" />
        </mxCell>
        <mxCell id="MT20WT9ZjDiSe8qtbaJg-82" value="" style="endArrow=classic;html=1;rounded=0;exitX=1;exitY=0.5;exitDx=0;exitDy=0;strokeWidth=5;strokeColor=#000099;labelBackgroundColor=none;entryX=0;entryY=0.5;entryDx=0;entryDy=0;" parent="1" source="MT20WT9ZjDiSe8qtbaJg-71" target="MT20WT9ZjDiSe8qtbaJg-81" edge="1">
          <mxGeometry y="10" width="50" height="50" relative="1" as="geometry">
            <mxPoint x="280" y="2230" as="sourcePoint" />
            <mxPoint x="280.48" y="2314" as="targetPoint" />
            <mxPoint as="offset" />
          </mxGeometry>
        </mxCell>
        <mxCell id="MT20WT9ZjDiSe8qtbaJg-83" value="&lt;div style=&quot;font-size: 18px;&quot;&gt;&lt;font style=&quot;font-size: 18px;&quot;&gt;&lt;b&gt;update textsplitter&lt;/b&gt;&lt;/font&gt;&lt;/div&gt;&lt;div style=&quot;font-size: 18px;&quot;&gt;&lt;font style=&quot;font-size: 18px;&quot;&gt;&lt;b&gt;pip install&lt;br&gt;&lt;/b&gt;&lt;/font&gt;&lt;/div&gt;" style="rounded=1;whiteSpace=wrap;html=1;strokeColor=#000099;fillColor=#33FFFF;strokeWidth=5;" parent="1" vertex="1">
          <mxGeometry x="580" y="2200" width="180" height="66" as="geometry" />
        </mxCell>
        <mxCell id="MT20WT9ZjDiSe8qtbaJg-84" value="" style="endArrow=classic;html=1;rounded=0;exitX=1;exitY=0.5;exitDx=0;exitDy=0;strokeWidth=5;strokeColor=#000099;labelBackgroundColor=none;entryX=0;entryY=0.5;entryDx=0;entryDy=0;" parent="1" edge="1">
          <mxGeometry y="10" width="50" height="50" relative="1" as="geometry">
            <mxPoint x="500" y="2232.52" as="sourcePoint" />
            <mxPoint x="580" y="2232.52" as="targetPoint" />
            <mxPoint as="offset" />
          </mxGeometry>
        </mxCell>
        <mxCell id="MT20WT9ZjDiSe8qtbaJg-85" value="&lt;div&gt;Informeer je collega&#39;s over de update; al hun venv&#39;s (incl. de jouwe!) moeten bijgewerkt worden. datatool op ODC-Noord wordt automatisch bijgewerkt bij de eerstvolgende productie-run&lt;/div&gt;" style="rounded=0;whiteSpace=wrap;html=1;strokeColor=none;fillColor=#33FFFF;align=left;fontSize=14;" parent="1" vertex="1">
          <mxGeometry x="555" y="2080" width="230" height="110" as="geometry" />
        </mxCell>
        <mxCell id="MT20WT9ZjDiSe8qtbaJg-86" value="&lt;b&gt;&lt;font style=&quot;font-size: 26px;&quot;&gt;END&lt;/font&gt;&lt;/b&gt;" style="rounded=1;whiteSpace=wrap;html=1;strokeColor=#990000;fillColor=#FF3333;strokeWidth=5;" parent="1" vertex="1">
          <mxGeometry x="780" y="2200" width="180" height="60" as="geometry" />
        </mxCell>
        <mxCell id="MT20WT9ZjDiSe8qtbaJg-87" value="&lt;div&gt;&lt;b&gt;Toelichting Cyclus code aanpassen.&lt;br&gt;&lt;/b&gt;&lt;/div&gt;&lt;div&gt;Dit is een zeer complex en tijdrovend proces. De volgende tips &amp;amp; tricks kunnen helpen:&lt;/div&gt;&lt;div&gt;1) Ken en begrijp de werking van textsplitter (TextSplitter_details.drawio)&lt;/div&gt;&lt;div&gt;2) Zorg dat je de verschillende stappen uit het diagram kunt linken aan de code (tot op het niveau van individuele regels).&lt;/div&gt;&lt;div&gt;3) Run:&lt;/div&gt;&lt;div&gt;- mysplitter.set_ruleverbosity(1)&lt;/div&gt;&lt;div&gt;- mysplitter.set_verbosetextline(&quot;my text&quot;)&lt;/div&gt;&lt;div&gt;voordat je de textsplitter draait op je nieuwe document. Dan kun je in de terminal volgen hoe het beslissingsproces in zijn werk gaat voor alle textregels met &quot;my text&quot; in zich.&lt;/div&gt;&lt;div&gt;4) Besef dat de structuurherkenning primair plaatsvindt d.m.v. de selectie regels. Dus als er een hoofdstuktitel fout gaat, ligt de oorzaak meestal in headlines.py; als er iets onterecht wel/niet in de footer komt, ligt de oorzaak meestal in footer.py, enz. En vergeet regex_expressions.py niet; die wordt gebruikt bij alle selectieregels.&lt;br&gt;&lt;/div&gt;&lt;div&gt;5) Alleen als je een nieuw type informatie nodig hebt (zoals wanneer er alleen vetgedrukte tekst en cursieve tekst wordt gemeten terwijl je onderstreepte tekst nodig hebt) moet je textgeneration.py aanpassen. Maar dit moet niet je eerste methode of gedachte zijn. Dit is echt een noodgreep.&lt;br&gt;&lt;/div&gt;&lt;div&gt;6) Alleen als de fout veroorzaakt wordt door een combinatie van textregels en niet door een foute beslissing van selectieregels (dit gebeurt echt hoogst zelden!) moet je breakdown.py aanpassen.&lt;/div&gt;&lt;div&gt;7) Functionaliteit zoals het berekenen van de tree, de samenvattingen maken, bestanden exporteren en html-parsing hebben NIETS te maken met de structuurherkenning. Die code kun je dus beter met rust laten.&lt;/div&gt;&lt;div&gt;8) Dit geldt in het bijzonder voor de summarize-scripts: die code kun je niet goed testen, dus is het zeer riskant om hierin iets aan te passen.&lt;br&gt;&lt;/div&gt;" style="rounded=0;whiteSpace=wrap;html=1;strokeColor=none;fillColor=#CCFFFF;align=left;fontStyle=0" parent="1" vertex="1">
          <mxGeometry x="840" y="463" width="400" height="447" as="geometry" />
        </mxCell>
        <mxCell id="MT20WT9ZjDiSe8qtbaJg-88" value="&lt;div&gt;&lt;b&gt;Toelichting Cyclus code en tests aanpassen.&lt;br&gt;&lt;/b&gt;&lt;/div&gt;&lt;div&gt;Als er hier iets fout gaat, komt dat meestal doordat unit-tests hardcoded inputs moeten hebben. Als deze inputs intermediate results zijn van andere stappen in het proces (zoals fontregions of lineregions), kun je ze rustig aanpassen om je tests weer te laten slagen. Blijf in dat geval van de source code af, zodat je niet het risico loopt dat je regressietests omvallen.&lt;/div&gt;&lt;div&gt;&lt;br&gt;&lt;/div&gt;&lt;div&gt;Als het probleem echter veroorzaakt wordt doordat er toy-docs (integratietests) niet goed worden geanalyseerd en/of dat er hardcoded EINDresultaten (zoals de splitdoc-uitkomsten) problemen geven, dan kan het nodig zijn om de source code toch weer aan te passen. Houd in gedachten dat het doel van de execitie is om een document toe te voegen aan de regressietests en dat dit doel al gehaald is. Dus gebruik een paar simpele quick-fixes zodat je tests er weer doorheen rollen en die je regressietests niet verstoren.&lt;br&gt;&lt;/div&gt;" style="rounded=0;whiteSpace=wrap;html=1;strokeColor=none;fillColor=#CCFFFF;align=left;fontStyle=0" parent="1" vertex="1">
          <mxGeometry x="820" y="1240" width="400" height="250" as="geometry" />
        </mxCell>
        <mxCell id="MT20WT9ZjDiSe8qtbaJg-89" value="&lt;div style=&quot;font-size: 26px;&quot;&gt;&lt;b style=&quot;font-size: 26px;&quot;&gt;Flow Diagram voor het toevoegen van een extra document aan de regressietesten van pdftextsplitter&lt;/b&gt;&lt;br style=&quot;font-size: 26px;&quot;&gt;&lt;/div&gt;" style="rounded=0;whiteSpace=wrap;html=1;strokeColor=none;fillColor=#33FFFF;align=center;fontSize=26;" parent="1" vertex="1">
          <mxGeometry y="10" width="1250" height="70" as="geometry" />
        </mxCell>
        <mxCell id="bJlupODZ3YF-iwM3So32-1" value="Check of de elementen van de beoordeling in de html-visualisatie overeenkomen met de bron-pdf." style="rounded=0;whiteSpace=wrap;html=1;strokeColor=none;fillColor=#33FFFF;align=left;" parent="1" vertex="1">
          <mxGeometry x="425" y="330" width="140" height="90" as="geometry" />
        </mxCell>
        <mxCell id="bJlupODZ3YF-iwM3So32-2" value="&lt;font style=&quot;font-size: 16px;&quot;&gt;De belangrijkste KPI voor het meten van de kwaliteit van de output van pdftextsplitter, is het aantal regressietests. Dit zijn zorgvuldig uitgekozen documenten die structuren bevatten waarvan het voor de klant belangrijk is dat ze correct herkend worden. Het verbeteren van de kwaliteit van de output van pdftextsplitter vindt dus primair plaats door extra documenten toe te voegen aan de regressietests. Dit flow-diagram geeft in detail weer welke stappen een ontwikkelaar moet volgen om zo&#39;n document toe te voegen aan de regressietests.&lt;/font&gt;" style="rounded=0;whiteSpace=wrap;html=1;strokeColor=none;fillColor=#CCFFFF;align=left;fontStyle=0" parent="1" vertex="1">
          <mxGeometry x="720" y="100" width="530" height="170" as="geometry" />
        </mxCell>
      </root>
    </mxGraphModel>
  </diagram>
</mxfile>
